<mxfile host="65bd71144e">
    <diagram id="m998ynfEFSZgKAOBnZY0" name="Page-1">
        <mxGraphModel dx="674" dy="357" grid="1" gridSize="10" guides="1" tooltips="1" connect="1" arrows="1" fold="1" page="1" pageScale="1" pageWidth="850" pageHeight="1100" math="0" shadow="0">
            <root>
                <mxCell id="0"/>
                <mxCell id="1" parent="0"/>
                <mxCell id="2" value="" style="rounded=0;whiteSpace=wrap;html=1;" parent="1" vertex="1">
                    <mxGeometry x="90" y="80" width="640" height="520" as="geometry"/>
                </mxCell>
                <mxCell id="3" value="Score: 1" style="text;html=1;align=center;verticalAlign=middle;resizable=0;points=[];autosize=1;strokeColor=none;fillColor=none;" parent="1" vertex="1">
                    <mxGeometry x="100" y="110" width="60" height="20" as="geometry"/>
                </mxCell>
                <mxCell id="4" value="(Moving background)" style="text;html=1;align=center;verticalAlign=middle;resizable=0;points=[];autosize=1;strokeColor=none;fillColor=none;" parent="1" vertex="1">
                    <mxGeometry x="335" y="110" width="130" height="20" as="geometry"/>
                </mxCell>
                <mxCell id="5" value="Actor" style="shape=umlActor;verticalLabelPosition=bottom;verticalAlign=top;html=1;outlineConnect=0;" parent="1" vertex="1">
                    <mxGeometry x="160" y="130" width="50" height="100" as="geometry"/>
                </mxCell>
                <mxCell id="9" value="" style="shape=actor;whiteSpace=wrap;html=1;" parent="1" vertex="1">
                    <mxGeometry x="290" y="150" width="40" height="60" as="geometry"/>
                </mxCell>
                <mxCell id="10" value="" style="shape=actor;whiteSpace=wrap;html=1;" parent="1" vertex="1">
                    <mxGeometry x="660" y="160" width="40" height="60" as="geometry"/>
                </mxCell>
                <mxCell id="15" value="" style="shape=actor;whiteSpace=wrap;html=1;" parent="1" vertex="1">
                    <mxGeometry x="390" y="270" width="40" height="60" as="geometry"/>
                </mxCell>
                <mxCell id="16" value="" style="shape=actor;whiteSpace=wrap;html=1;" parent="1" vertex="1">
                    <mxGeometry x="510" y="180" width="40" height="60" as="geometry"/>
                </mxCell>
                <mxCell id="17" value="" style="shape=actor;whiteSpace=wrap;html=1;" parent="1" vertex="1">
                    <mxGeometry x="370" y="430" width="40" height="60" as="geometry"/>
                </mxCell>
                <mxCell id="18" value="" style="shape=actor;whiteSpace=wrap;html=1;" parent="1" vertex="1">
                    <mxGeometry x="200" y="310" width="40" height="60" as="geometry"/>
                </mxCell>
                <mxCell id="19" value="" style="shape=actor;whiteSpace=wrap;html=1;" parent="1" vertex="1">
                    <mxGeometry x="470" y="350" width="40" height="60" as="geometry"/>
                </mxCell>
                <mxCell id="20" value="" style="shape=actor;whiteSpace=wrap;html=1;" parent="1" vertex="1">
                    <mxGeometry x="630" y="300" width="40" height="60" as="geometry"/>
                </mxCell>
                <mxCell id="21" value="" style="shape=actor;whiteSpace=wrap;html=1;" parent="1" vertex="1">
                    <mxGeometry x="290" y="330" width="40" height="60" as="geometry"/>
                </mxCell>
                <mxCell id="22" value="" style="shape=actor;whiteSpace=wrap;html=1;" parent="1" vertex="1">
                    <mxGeometry x="350" y="180" width="40" height="60" as="geometry"/>
                </mxCell>
                <mxCell id="23" value="" style="shape=actor;whiteSpace=wrap;html=1;" parent="1" vertex="1">
                    <mxGeometry x="540" y="410" width="40" height="60" as="geometry"/>
                </mxCell>
                <mxCell id="24" value="" style="shape=actor;whiteSpace=wrap;html=1;" parent="1" vertex="1">
                    <mxGeometry x="250" y="420" width="40" height="60" as="geometry"/>
                </mxCell>
                <mxCell id="25" value="" style="ellipse;shape=cloud;whiteSpace=wrap;html=1;fillColor=#FFB366;" vertex="1" parent="1">
                    <mxGeometry x="250" y="165" width="50" height="50" as="geometry"/>
                </mxCell>
            </root>
        </mxGraphModel>
    </diagram>
</mxfile>